<?xml version="1.0" standalone="no"?><!-- Generator: Gravit.io --><svg xmlns="http://www.w3.org/2000/svg" xmlns:xlink="http://www.w3.org/1999/xlink" style="isolation:isolate" viewBox="0 0 933 348" width="933" height="348"><defs><clipPath id="_clipPath_oAap7k03WVw5Fq06v2QMzN1v3NHvcoSd"><rect width="933" height="348"/></clipPath></defs><g clip-path="url(#_clipPath_oAap7k03WVw5Fq06v2QMzN1v3NHvcoSd)"><path d=" M 490.45 333.5 L 505.515 333.5 L 505.515 11.5 L 490.45 11.5 L 490.45 333.5 Z  M 746.555 338.33 C 843.385 338.33 912.615 267.375 912.615 172.845 C 912.615 77.97 843.385 6.67 746.555 6.67 C 649.725 6.67 580.495 78.315 580.495 172.845 C 580.495 267.03 649.725 338.33 746.555 338.33 Z  M 746.555 323.495 C 658.695 323.495 595.79 258.405 595.79 172.845 C 595.79 86.94 658.695 21.505 746.555 21.505 C 834.415 21.505 897.32 86.48 897.32 172.845 C 897.32 258.865 834.415 323.495 746.555 323.495 Z " fill-rule="evenodd" fill="rgb(255,255,255)"/><path d=" M 273 159 L 420 159 L 420 173 L 273 173 L 273 159 Z " fill="rgb(255,255,255)"/><path d=" M 256.91 333.5 L 276.46 333.5 L 132.71 165.793 L 264.5 11.5 L 245.065 11.5 L 119.255 158.815 L 64.515 158.815 L 64.515 11.5 L 49.45 11.5 L 49.45 333.5 L 64.515 333.5 L 64.515 173.19 L 119.278 173.19 L 256.91 333.5 Z " fill="rgb(255,255,255)"/></g></svg>